# AST/ASF file generated using VICON BodyLanguage
# -----------------------------------------------
:version 1.10
:name VICON
:units
  mass 1.0
  length 0.45
  angle deg
:documentation
   .ast/.asf automatically generated from VICON data using
   VICON BodyBuilder and BodyLanguage model FoxedUp or BRILLIANT.MOD
:root
   order TX TY TZ RX RY RZ
   axis XYZ
   position 0 0 0  
   orientation 0 0 0 
:bonedata
  begin
     id 1 
     name lhipjoint
     direction 0.570549 -0.739093 0.358072 
     length 2.41801 
     axis 0 0 0  XYZ
  end
  begin
     id 2 
     name lfemur
     direction 0.34202 -0.939693 0  
     length 7.44434  
     axis 0 0 20  XYZ
    dof rx ry rz
    limits (-160.0 20.0)
           (-70.0 70.0)
           (-60.0 70.0)
  end
  begin
     id 3 
     name ltibia
     direction 0.34202 -0.939693 0   
     length 7.60047   
     axis 0 0 20   XYZ
    dof rx
    limits (-10.0 170.0)
  end
  begin
     id 4 
     name lfoot
     direction 0.0909041 -0.249757 0.964032   
     length 2.03437   
     axis -90 7.62852e-016 20   XYZ
    dof rx rz
    limits (-45.0 90.0)
           (-70.0 20.0)
  end
  begin
     id 5 
     name ltoes
     direction 1.53547e-011 -4.2174e-011 1   
     length 1.02054   
     axis -90 7.62852e-016 20   XYZ
    dof rx
    limits (-90.0 20.0)
  end
  begin
     id 6 
     name rhipjoint
     direction -0.558096 -0.746754 0.361784   
     length 2.3932  
     axis 0 0 0  XYZ 
  end
  begin
     id 7 
     name rfemur
     direction -0.34202 -0.939693 0   
     length 7.3886   
     axis 0 0 -20   XYZ
    dof rx ry rz
    limits (-160.0 20.0)
           (-70.0 70.0)
           (-70.0 60.0)
  end
  begin
     id 8 
     name rtibia
     direction -0.34202 -0.939693 0   
     length 7.4839   
     axis 0 0 -20   XYZ
    dof rx
    limits (-10.0 170.0)
 end
 begin
     id 9 
     name rfoot
     direction -0.114619 -0.314914 0.942174   
     length 2.25127  
     axis -90 -7.62852e-016 -20   XYZ
    dof rx rz
    limits (-45.0 90.0)
           (-20.0 70.0)
  end
  begin
     id 10 
     name rtoes
     direction -1.53518e-011 -4.21881e-011 1   
     length 1.11821   
     axis -90 -7.62852e-016 -20   XYZ
    dof rx
    limits (-90.0 20.0)
  end
  begin
     id 11 
     name lowerback
     direction -0.00902269 0.996426 -0.0839821   
     length 2.25052   
     axis 0 0 0   XYZ
    dof rx ry rz
    limits (-20.0 45.0)
           (-30.0 30.0)
           (-30.0 30.0)
  end
  begin
     id 12 
     name upperback
     direction 0.0370973 0.999169 -0.0168941   
     length 2.24876   
     axis 0 0 0   XYZ
    dof rx ry rz
    limits (-20.0 45.0)
           (-30.0 30.0)
           (-30.0 30.0)
  end
  begin
     id 13 
     name thorax
     direction 0.0402726 0.998931 0.0227027   
     length 2.26408   
     axis 0 0 0   XYZ
    dof rx ry rz
    limits (-20.0 45.0)
           (-30.0 30.0)
           (-30.0 30.0)
  end
  begin
     id 14 
     name lowerneck
     direction -0.0733697 0.98508 0.155675   
     length 1.58204   
     axis 0 0 0   XYZ
    dof rx ry rz
    limits (-20.0 45.0)
           (-30.0 30.0)
           (-30.0 30.0)
  end
  begin
     id 15 
     name upperneck
     direction 0.0426554 0.993501 -0.105526   
     length 1.61222   
     axis 0 0 0   XYZ
    dof rx ry rz
    limits (-20.0 45.0)
           (-30.0 30.0)
           (-30.0 30.0)
  end
  begin
     id 16
     name head
     direction 0.020792 0.998384 -0.0528868  
     length 1.61527  
     axis 0 0 0   XYZ
    dof rx ry rz
    limits (-20.0 45.0)
           (-30.0 30.0)
           (-30.0 30.0)
  end
  begin
     id 17 
     name lclavicle
     direction 0.967109 0.155462 -0.201325  
     length 3.59357  
     axis 0 0 0   XYZ
    dof ry rz
    limits (-20.0 10.0)
           (0.0 20.0)
  end
  begin
     id 18 
     name lhumerus
     direction 1 -4.48968e-011 2.38195e-027   
     length 5.38154   
     axis 180 -30 -90   XYZ
    dof rx ry rz
    limits (-60.0 90.0)
           (-90.0 90.0)
           (-90.0 90.0)
  end
  begin
     id 19
     name lradius
     direction 1 -4.48961e-011 4.85371e-027   
     length 3.33312   
     axis 180 -30 -90   XYZ
    dof rx
    limits (-10.0 170.0)
  end
  begin
     id 20
     name lwrist
     direction 1 -4.48961e-011 4.76515e-027   
     length 1.66656   
     axis -3.27502e-015 90 90   XYZ
    dof ry
    limits (-180.0 0.0)
 end
  begin
     id 21 
     name lhand
     direction 1 -4.48951e-011 9.53074e-027   
     length 0.710789   
     axis -6.08098e-015 90 90   XYZ
    dof rx rz
    limits (-90.0 90.0)
           (-45.0 45.0)
  end
  begin
     id 22 
     name lfingers
     direction 1 -4.48953e-011 1.90613e-026   
     length 0.573057   
     axis -1.21619e-014 90 90   XYZ
    dof rx
    limits (0.0 90.0)
  end
  begin
     id 23
     name lthumb
     direction 0.707107 -6.34973e-011 0.707107   
     length 0.822798   
     axis -90 45 -9.86923e-015   XYZ
    dof rx rz
    limits (-45.0 45.0)
           (-45.0 45.0)
  end
  begin
     id 24 
     name rclavicle
     direction -0.9585 0.265289 -0.104398   
     length 3.42039  
     axis 0 0 0   XYZ 
    dof ry rz
    limits (-10.0 20.0)
           (-20.0 0.0)
  end
  begin
     id 25 
     name rhumerus
     direction -1 -4.48977e-011 2.21478e-027  
     length 5.16954   
     axis 180 30 90   XYZ
    dof rx ry rz
    limits (-90.0 60.0)
           (-90.0 90.0)
           (-90.0 90.0)
  end
  begin
     id 26 
     name rradius
     direction -1 -4.48967e-011 5.63677e-027   
     length 3.38287   
     axis 180 30 90   XYZ
    dof rx
    limits (-10.0 170.0)
  end
  begin
     id 27 
     name rwrist
     direction -1 -4.48967e-011 4.76501e-027   
     length 1.69144   
     axis -3.27502e-015 -90 -90   XYZ
    dof ry
    limits (-180.0 0.0)
  end
  begin
     id 28
     name rhand
     direction -1 -4.48902e-011 9.53292e-027   
     length 0.817967   
     axis -6.08098e-015 -90 -90   XYZ
    dof rx rz
    limits (-90.0 90.0)
           (-45.0 45.0)
  end
  begin
     id 29
     name rfingers
     direction -1 -4.49012e-011 1.90561e-026   
     length 0.659466   
     axis -1.21619e-014 -90 -90   XYZ
    dof rx
    limits (0.0 90.0)
  end
  begin
     id 30
     name rthumb
     direction -0.707107 -6.34944e-011 0.707107   
     length 0.946865   
     axis -90 -45 9.86923e-015   XYZ
    dof rx rz
    limits (-45.0 45.0)
           (-45.0 45.0)
  end
:hierarchy
  begin
    root lhipjoint rhipjoint lowerback
    lhipjoint lfemur
    lfemur ltibia
    ltibia lfoot
    lfoot ltoes
    rhipjoint rfemur
    rfemur rtibia
    rtibia rfoot
    rfoot rtoes
    lowerback upperback
    upperback thorax
    thorax lowerneck lclavicle rclavicle
    lowerneck upperneck
    upperneck head
    lclavicle lhumerus
    lhumerus lradius
    lradius lwrist
    lwrist lhand lthumb
    lhand lfingers
    rclavicle rhumerus
    rhumerus rradius
    rradius rwrist
    rwrist rhand rthumb
    rhand rfingers
  end

#!OML:ASF F:\twosubjects\two\wednesday\Session 1\Justin1.ASF
:FULLY-SPECIFIED
:DEGREES
31
root -1.83687 17.7427 20.2542 -168.79 4.13957 -174.629
lowerback 3.05697 0.355073 3.32061
upperback 0.153999 0.810768 3.41758
thorax -1.56469 0.463419 1.61187
lowerneck -16.4557 -3.98592 -11.8661
upperneck 12.1249 -3.09327 3.57012
head 6.64502 -1.72409 2.7411
rclavicle -5.1684e-015 2.70347e-014
rhumerus -34.192 -20.9152 -72.3816
rradius 30.4078
rwrist -9.8342
rhand -14.8045 20.4545
rfingers 7.12502
rthumb 11.3533 -9.2182
lclavicle -5.1684e-015 2.70347e-014
lhumerus -33.4085 17.3906 82.6318
lradius 25.281
lwrist -12.976
lhand -2.42102 35.8322
lfingers 7.12502
lthumb 23.2695 64.4462
rfemur 14.1985 3.69213 26.588
rtibia -2.22639e-014
rfoot -10.4095 5.53737
rtoes 7.92201
lfemur -40.3777 3.57728 -12.4579
ltibia 24.9269
lfoot -9.4407 7.30423
ltoes -13.2845
32
root -1.87856 17.7269 20.123 -168.862 4.47161 -174.594
lowerback 3.09908 0.32154 3.3072
upperback 0.211044 0.766335 3.43058
thorax -1.52982 0.44228 1.63457
lowerneck -16.5596 -3.88266 -11.8849
upperneck 11.9834 -2.93906 3.58089
head 6.60445 -1.64542 2.76324
rclavicle -3.8763e-015 6.75868e-015
rhumerus -34.2967 -20.9162 -72.2849
rradius 30.73
rwrist -10.4434
rhand -15.2008 19.8727
rfingers 7.12502
rthumb 10.971 -9.82067
lclavicle -3.8763e-015 6.75868e-015
lhumerus -33.5575 17.8855 82.4002
lradius 25.2184
lwrist -12.9516
lhand -2.4445 35.9824
lfingers 7.12502
lthumb 23.247 64.5991
rfemur 14.7297 3.93648 26.3785
rtibia -3.18055e-015
rfoot -9.84825 5.64474
rtoes 8.66944
lfemur -39.9379 3.97718 -12.8589
ltibia 25.0841
lfoot -9.20873 6.80198
ltoes -14.6148
33
root -1.92115 17.7135 19.9944 -168.877 4.70796 -174.604
lowerback 3.21724 0.36009 3.36737
upperback 0.15968 0.821514 3.342
thorax -1.64694 0.465141 1.506
lowerneck -16.498 -3.84375 -11.9039
upperneck 11.8306 -2.91479 3.70731
head 6.54439 -1.62187 2.81042
rclavicle -3.47873e-015 -1.51076e-014
rhumerus -34.6415 -21.3086 -72.0413
rradius 31.0651
rwrist -11.1788
rhand -14.4739 18.4996
rfingers 7.12502
rthumb 11.6721 -11.1553
lclavicle -3.47873e-015 -1.51076e-014
lhumerus -33.7378 17.9597 82.1861
lradius 25.0366
lwrist -13.0172
lhand -2.78358 36.0897
lfingers 7.12502
lthumb 22.9217 64.7472
rfemur 15.1766 4.08698 26.1408
rtibia 5.08889e-014
rfoot -9.36751 5.62491
rtoes 6.44421
lfemur -39.6361 4.23475 -13.2962
ltibia 25.39
lfoot -8.96892 6.10245
ltoes -16.7402
34
root -1.96379 17.7293 19.863 -168.712 4.86681 -174.574
lowerback 3.29369 0.473723 3.56012
upperback 0.00706068 0.976513 3.15366
thorax -1.84054 0.53223 1.19566
lowerneck -16.7515 -3.90349 -11.6143
upperneck 12.1149 -3.03095 3.67771
head 6.68207 -1.67393 2.74064
rclavicle -1.04362e-014 1.15295e-014
rhumerus -35.2143 -22.1342 -71.6587
rradius 31.4003
rwrist -11.491
rhand -14.9022 18.6087
rfingers 7.12502
rthumb 11.2591 -11.0692
lclavicle -1.04362e-014 1.15295e-014
lhumerus -33.8193 17.6514 81.9897
lradius 24.8896
lwrist -13.072
lhand -2.95734 36.1534
lfingers 7.12502
lthumb 22.7549 64.8315
rfemur 15.3666 4.18539 25.9589
rtibia 1.27222e-014
rfoot -8.74083 5.55522
rtoes 2.70367
lfemur -39.4602 4.26021 -13.5365
ltibia 25.8326
lfoot -8.71897 5.07495
ltoes -14.8108
35
root -2.00604 17.7577 19.7319 -168.524 5.06635 -174.566
lowerback 3.24112 0.489724 3.48599
upperback -0.148449 0.997285 3.16531
thorax -1.97232 0.540189 1.24791
lowerneck -16.5635 -3.84543 -11.3604
upperneck 12.0282 -2.97445 3.32444
head 6.60931 -1.66214 2.59212
rclavicle 1.0635e-014 -1.98785e-015
rhumerus -35.7185 -22.5456 -71.094
rradius 31.6583
rwrist -11.6525
rhand -15.8484 19.7429
rfingers 7.12502
rthumb 10.3464 -9.98255
lclavicle 1.0635e-014 -1.98785e-015
lhumerus -34.0041 18.1108 81.7501
lradius 24.6928
lwrist -13.5288
lhand -2.74769 35.9476
lfingers 7.12502
lthumb 22.9561 64.6008
rfemur 15.4966 4.32465 25.7151
rtibia -1.59028e-014
rfoot -7.86128 5.67267
rtoes 1.31612
lfemur -39.33 4.11445 -13.6382
ltibia 26.2818
lfoot -7.9724 3.98185
ltoes -10.1802
36
root -2.05233 17.7804 19.5855 -168.509 5.42665 -174.863
lowerback 3.12684 0.432866 3.00131
upperback -0.274807 0.899506 3.23837
thorax -2.04628 0.493996 1.59964
lowerneck -15.9 -3.6451 -11.5252
upperneck 11.5793 -2.72176 3.18078
head 6.33651 -1.5495 2.60356
rclavicle -3.08116e-015 8.34896e-015
rhumerus -36.193 -22.7173 -70.4166
rradius 31.9054
rwrist -11.8329
rhand -15.7578 20.4503
rfingers 7.12502
rthumb 10.4338 -9.27075
lclavicle -3.08116e-015 8.34896e-015
lhumerus -34.5425 19.0262 81.4882
lradius 24.5924
lwrist -13.9651
lhand -2.55072 35.796
lfingers 7.12502
lthumb 23.1451 64.4256
rfemur 15.8553 4.55923 25.0822
rtibia 6.36111e-015
rfoot -6.9354 5.84806
rtoes 0.813033
lfemur -39.1111 3.59871 -13.9025
ltibia 26.7153
lfoot -6.79749 3.70199
ltoes -13.2475
37
root -2.09916 17.7898 19.4309 -168.538 5.53072 -175.421
lowerback 2.96246 0.407406 2.52627
upperback -0.242478 0.812659 3.03272
thorax -1.92231 0.446418 1.65958
lowerneck -16.2348 -3.60749 -11.5016
upperneck 11.8129 -2.63817 3.20857
head 6.46109 -1.51018 2.61568
rclavicle 5.36719e-015 3.37934e-014
rhumerus -36.518 -23.4912 -69.9987
rradius 32.2109
rwrist -12.0849
rhand -16.5225 20.2477
rfingers 7.12502
rthumb 9.69607 -9.50913
lclavicle 5.36719e-015 3.37934e-014
lhumerus -34.6831 19.1908 81.3305
lradius 24.6663
lwrist -13.8557
lhand -2.45987 36.0017
lfingers 7.12502
lthumb 23.2323 64.6203
rfemur 16.2907 4.50336 24.1922
rtibia -1.90833e-014
rfoot -5.97598 6.04465
rtoes 0.9665
lfemur -38.9687 3.01283 -14.5606
ltibia 27.0305
lfoot -5.76318 3.76027
ltoes -13.1789
38
root -2.14819 17.7962 19.2827 -168.535 5.30835 -175.816
lowerback 2.85857 0.315512 2.36684
upperback -0.187822 0.656969 2.8104
thorax -1.80455 0.362937 1.52802
lowerneck -17.1134 -3.66321 -11.2741
upperneck 12.532 -2.62608 3.05282
head 6.83475 -1.52 2.52495
rclavicle 6.26172e-015 -5.60573e-014
rhumerus -36.8024 -24.3487 -69.6477
rradius 32.5747
rwrist -12.6142
rhand -17.9817 19.2556
rfingers 7.12502
rthumb 8.28795 -10.5619
lclavicle 6.26172e-015 -5.60573e-014
lhumerus -34.5187 19.0078 81.2442
lradius 24.6388
lwrist -13.6106
lhand -2.31227 36.0024
lfingers 7.12502
lthumb 23.3739 64.6031
rfemur 16.6685 4.16305 23.5214
rtibia 6.36111e-015
rfoot -4.88692 6.26748
rtoes 0.991934
lfemur -38.8039 2.41213 -15.0794
ltibia 27.0823
lfoot -4.97173 3.70942
ltoes -13.3518
39
root -2.19617 17.8167 19.1346 -168.616 5.39756 -175.989
lowerback 3.00779 0.212342 2.20863
upperback -0.393142 0.523026 2.79771
thorax -2.09917 0.293956 1.60869
lowerneck -16.846 -3.52955 -11.3864
upperneck 12.8134 -2.43221 2.99124
head 6.8695 -1.44379 2.54788
rclavicle 1.41137e-014 1.11319e-014
rhumerus -37.5654 -24.824 -68.8344
rradius 32.9396
rwrist -13.1156
rhand -16.4751 19.0258
rfingers 7.12502
rthumb 9.74175 -10.7289
lclavicle 1.41137e-014 1.11319e-014
lhumerus -34.9846 19.1484 81.0411
lradius 24.5395
lwrist -13.5703
lhand -2.27043 36.009
lfingers 7.12502
lthumb 23.414 64.6046
rfemur 17.1586 4.15937 23.0633
rtibia 1.59028e-014
rfoot -3.69218 6.42147
rtoes -0.900588
lfemur -38.2719 1.94142 -15.2589
ltibia 26.8966
lfoot -4.42905 3.57687
ltoes -12.1565
40
root -2.24056 17.8384 18.9873 -168.772 5.4649 -176.195
lowerback 3.24513 0.0685423 1.81728
upperback -0.541023 0.334491 2.92002
thorax -2.3851 0.205068 1.96331
lowerneck -16.5734 -3.3359 -11.7249
upperneck 12.8359 -2.1261 3.0494
head 6.81444 -1.30719 2.65724
rclavicle 6.4605e-015 1.31198e-014
rhumerus -38.1526 -25.2373 -67.8546
rradius 33.221
rwrist -13.5005
rhand -13.7211 19.099
rfingers 7.12502
rthumb 12.398 -10.5134
lclavicle 6.4605e-015 1.31198e-014
lhumerus -35.4046 19.8469 80.8124
lradius 24.4114
lwrist -13.8578
lhand -2.331 36.1521
lfingers 7.12502
lthumb 23.3559 64.7551
rfemur 17.7466 4.1289 22.5824
rtibia 3.81667e-014
rfoot -2.44036 6.52365
rtoes -3.11212
lfemur -37.6266 1.6986 -15.6051
ltibia 26.6925
lfoot -3.68053 2.95371
ltoes -10.8887
